<mxfile host="app.diagrams.net" modified="2023-11-23T09:09:19.678Z" agent="Mozilla/5.0 (Windows NT 10.0; Win64; x64; rv:109.0) Gecko/20100101 Firefox/119.0" etag="IMr7w5-R5V4jSZHr6mm8" version="22.1.3" type="device">
  <diagram name="Page-1" id="CAKlMIxyu17nMkDT_ifj">
    <mxGraphModel dx="1136" dy="621" grid="1" gridSize="10" guides="1" tooltips="1" connect="1" arrows="1" fold="1" page="1" pageScale="1" pageWidth="850" pageHeight="1100" math="0" shadow="0">
      <root>
        <mxCell id="0" />
        <mxCell id="1" parent="0" />
        <mxCell id="D7MWi51H5zmShWoSvv_p-7" style="edgeStyle=orthogonalEdgeStyle;rounded=0;orthogonalLoop=1;jettySize=auto;html=1;" parent="1" source="D7MWi51H5zmShWoSvv_p-1" target="D7MWi51H5zmShWoSvv_p-2" edge="1">
          <mxGeometry relative="1" as="geometry">
            <Array as="points">
              <mxPoint x="420" y="190" />
            </Array>
          </mxGeometry>
        </mxCell>
        <mxCell id="D7MWi51H5zmShWoSvv_p-8" style="edgeStyle=orthogonalEdgeStyle;rounded=0;orthogonalLoop=1;jettySize=auto;html=1;entryX=0;entryY=0.5;entryDx=0;entryDy=0;" parent="1" source="D7MWi51H5zmShWoSvv_p-1" target="D7MWi51H5zmShWoSvv_p-4" edge="1">
          <mxGeometry relative="1" as="geometry">
            <Array as="points">
              <mxPoint x="420" y="190" />
            </Array>
          </mxGeometry>
        </mxCell>
        <mxCell id="D7MWi51H5zmShWoSvv_p-9" style="edgeStyle=orthogonalEdgeStyle;rounded=0;orthogonalLoop=1;jettySize=auto;html=1;" parent="1" source="D7MWi51H5zmShWoSvv_p-1" target="D7MWi51H5zmShWoSvv_p-3" edge="1">
          <mxGeometry relative="1" as="geometry">
            <Array as="points">
              <mxPoint x="420" y="400" />
            </Array>
          </mxGeometry>
        </mxCell>
        <mxCell id="D7MWi51H5zmShWoSvv_p-10" style="edgeStyle=orthogonalEdgeStyle;rounded=0;orthogonalLoop=1;jettySize=auto;html=1;" parent="1" source="D7MWi51H5zmShWoSvv_p-1" target="D7MWi51H5zmShWoSvv_p-5" edge="1">
          <mxGeometry relative="1" as="geometry">
            <Array as="points">
              <mxPoint x="420" y="400" />
            </Array>
          </mxGeometry>
        </mxCell>
        <mxCell id="D7MWi51H5zmShWoSvv_p-1" value="Front Page" style="rounded=0;whiteSpace=wrap;html=1;" parent="1" vertex="1">
          <mxGeometry x="360" y="40" width="120" height="60" as="geometry" />
        </mxCell>
        <mxCell id="D7MWi51H5zmShWoSvv_p-15" style="edgeStyle=orthogonalEdgeStyle;rounded=0;orthogonalLoop=1;jettySize=auto;html=1;entryX=0;entryY=0.5;entryDx=0;entryDy=0;" parent="1" source="D7MWi51H5zmShWoSvv_p-2" target="D7MWi51H5zmShWoSvv_p-1" edge="1">
          <mxGeometry relative="1" as="geometry">
            <Array as="points">
              <mxPoint x="140" y="70" />
            </Array>
          </mxGeometry>
        </mxCell>
        <mxCell id="D7MWi51H5zmShWoSvv_p-21" style="edgeStyle=orthogonalEdgeStyle;rounded=0;orthogonalLoop=1;jettySize=auto;html=1;exitX=0.25;exitY=1;exitDx=0;exitDy=0;entryX=0.25;entryY=0;entryDx=0;entryDy=0;" parent="1" source="D7MWi51H5zmShWoSvv_p-2" target="D7MWi51H5zmShWoSvv_p-3" edge="1">
          <mxGeometry relative="1" as="geometry" />
        </mxCell>
        <mxCell id="D7MWi51H5zmShWoSvv_p-2" value="Register" style="rounded=0;whiteSpace=wrap;html=1;" parent="1" vertex="1">
          <mxGeometry x="80" y="160" width="120" height="60" as="geometry" />
        </mxCell>
        <mxCell id="D7MWi51H5zmShWoSvv_p-20" style="edgeStyle=orthogonalEdgeStyle;rounded=0;orthogonalLoop=1;jettySize=auto;html=1;exitX=0.75;exitY=0;exitDx=0;exitDy=0;entryX=0.75;entryY=1;entryDx=0;entryDy=0;" parent="1" source="D7MWi51H5zmShWoSvv_p-3" target="D7MWi51H5zmShWoSvv_p-2" edge="1">
          <mxGeometry relative="1" as="geometry" />
        </mxCell>
        <mxCell id="D7MWi51H5zmShWoSvv_p-25" style="edgeStyle=orthogonalEdgeStyle;rounded=0;orthogonalLoop=1;jettySize=auto;html=1;entryX=0.75;entryY=1;entryDx=0;entryDy=0;" parent="1" source="D7MWi51H5zmShWoSvv_p-3" target="D7MWi51H5zmShWoSvv_p-5" edge="1">
          <mxGeometry relative="1" as="geometry">
            <Array as="points">
              <mxPoint x="110" y="470" />
              <mxPoint x="730" y="470" />
            </Array>
          </mxGeometry>
        </mxCell>
        <mxCell id="D7MWi51H5zmShWoSvv_p-27" style="edgeStyle=orthogonalEdgeStyle;rounded=0;orthogonalLoop=1;jettySize=auto;html=1;entryX=0;entryY=0.25;entryDx=0;entryDy=0;" parent="1" source="D7MWi51H5zmShWoSvv_p-3" target="D7MWi51H5zmShWoSvv_p-1" edge="1">
          <mxGeometry relative="1" as="geometry">
            <Array as="points">
              <mxPoint x="10" y="390" />
              <mxPoint x="10" y="55" />
            </Array>
          </mxGeometry>
        </mxCell>
        <mxCell id="D7MWi51H5zmShWoSvv_p-3" value="&lt;div&gt;List Products&lt;/div&gt;" style="rounded=0;whiteSpace=wrap;html=1;" parent="1" vertex="1">
          <mxGeometry x="80" y="360" width="120" height="60" as="geometry" />
        </mxCell>
        <mxCell id="D7MWi51H5zmShWoSvv_p-16" style="edgeStyle=orthogonalEdgeStyle;rounded=0;orthogonalLoop=1;jettySize=auto;html=1;entryX=1;entryY=0.5;entryDx=0;entryDy=0;" parent="1" source="D7MWi51H5zmShWoSvv_p-4" target="D7MWi51H5zmShWoSvv_p-1" edge="1">
          <mxGeometry relative="1" as="geometry">
            <Array as="points">
              <mxPoint x="700" y="70" />
            </Array>
          </mxGeometry>
        </mxCell>
        <mxCell id="D7MWi51H5zmShWoSvv_p-23" style="edgeStyle=orthogonalEdgeStyle;rounded=0;orthogonalLoop=1;jettySize=auto;html=1;exitX=0.25;exitY=1;exitDx=0;exitDy=0;entryX=0.25;entryY=0;entryDx=0;entryDy=0;" parent="1" source="D7MWi51H5zmShWoSvv_p-4" target="D7MWi51H5zmShWoSvv_p-5" edge="1">
          <mxGeometry relative="1" as="geometry" />
        </mxCell>
        <mxCell id="D7MWi51H5zmShWoSvv_p-4" value="&lt;div&gt;List Users&amp;nbsp;&lt;/div&gt;&lt;div&gt;(Admin)&lt;/div&gt;" style="rounded=0;whiteSpace=wrap;html=1;" parent="1" vertex="1">
          <mxGeometry x="640" y="160" width="120" height="60" as="geometry" />
        </mxCell>
        <mxCell id="D7MWi51H5zmShWoSvv_p-22" style="edgeStyle=orthogonalEdgeStyle;rounded=0;orthogonalLoop=1;jettySize=auto;html=1;exitX=0.75;exitY=0;exitDx=0;exitDy=0;entryX=0.75;entryY=1;entryDx=0;entryDy=0;" parent="1" source="D7MWi51H5zmShWoSvv_p-5" target="D7MWi51H5zmShWoSvv_p-4" edge="1">
          <mxGeometry relative="1" as="geometry" />
        </mxCell>
        <mxCell id="D7MWi51H5zmShWoSvv_p-24" style="edgeStyle=orthogonalEdgeStyle;rounded=0;orthogonalLoop=1;jettySize=auto;html=1;entryX=0.5;entryY=1;entryDx=0;entryDy=0;" parent="1" source="D7MWi51H5zmShWoSvv_p-5" target="D7MWi51H5zmShWoSvv_p-3" edge="1">
          <mxGeometry relative="1" as="geometry">
            <Array as="points">
              <mxPoint x="700" y="440" />
              <mxPoint x="140" y="440" />
            </Array>
          </mxGeometry>
        </mxCell>
        <mxCell id="D7MWi51H5zmShWoSvv_p-26" style="edgeStyle=orthogonalEdgeStyle;rounded=0;orthogonalLoop=1;jettySize=auto;html=1;entryX=1;entryY=0.25;entryDx=0;entryDy=0;" parent="1" source="D7MWi51H5zmShWoSvv_p-5" target="D7MWi51H5zmShWoSvv_p-1" edge="1">
          <mxGeometry relative="1" as="geometry">
            <Array as="points">
              <mxPoint x="840" y="390" />
              <mxPoint x="840" y="55" />
            </Array>
          </mxGeometry>
        </mxCell>
        <mxCell id="D7MWi51H5zmShWoSvv_p-41" style="rounded=0;orthogonalLoop=1;jettySize=auto;html=1;exitX=0;exitY=0;exitDx=0;exitDy=0;entryX=1;entryY=1;entryDx=0;entryDy=0;startArrow=classic;startFill=1;" parent="1" source="D7MWi51H5zmShWoSvv_p-5" target="D7MWi51H5zmShWoSvv_p-2" edge="1">
          <mxGeometry relative="1" as="geometry" />
        </mxCell>
        <mxCell id="D7MWi51H5zmShWoSvv_p-5" value="Shopping Cart" style="rounded=0;whiteSpace=wrap;html=1;" parent="1" vertex="1">
          <mxGeometry x="640" y="360" width="120" height="60" as="geometry" />
        </mxCell>
        <mxCell id="D7MWi51H5zmShWoSvv_p-11" value="User clicked &quot;list users&quot;" style="text;html=1;align=center;verticalAlign=middle;resizable=0;points=[];autosize=1;strokeColor=none;fillColor=none;" parent="1" vertex="1">
          <mxGeometry x="455" y="198" width="150" height="30" as="geometry" />
        </mxCell>
        <mxCell id="D7MWi51H5zmShWoSvv_p-12" value="User clicked &quot;register&quot;" style="text;whiteSpace=wrap;html=1;" parent="1" vertex="1">
          <mxGeometry x="235" y="198" width="120" height="40" as="geometry" />
        </mxCell>
        <mxCell id="D7MWi51H5zmShWoSvv_p-13" value="User clicked &quot;list products&quot;" style="text;whiteSpace=wrap;html=1;" parent="1" vertex="1">
          <mxGeometry x="240" y="360" width="110" height="40" as="geometry" />
        </mxCell>
        <mxCell id="D7MWi51H5zmShWoSvv_p-14" value="User clicked &quot;shopping cart&quot;" style="text;whiteSpace=wrap;html=1;" parent="1" vertex="1">
          <mxGeometry x="470" y="360" width="160" height="40" as="geometry" />
        </mxCell>
        <mxCell id="D7MWi51H5zmShWoSvv_p-28" value="User clicked &quot;register&quot;" style="text;whiteSpace=wrap;html=1;" parent="1" vertex="1">
          <mxGeometry x="180" y="270" width="120" height="40" as="geometry" />
        </mxCell>
        <mxCell id="D7MWi51H5zmShWoSvv_p-30" value="User clicked &quot;list products&quot;" style="text;whiteSpace=wrap;html=1;" parent="1" vertex="1">
          <mxGeometry x="40" y="270" width="110" height="40" as="geometry" />
        </mxCell>
        <mxCell id="D7MWi51H5zmShWoSvv_p-31" value="User clicked &quot;shopping cart&quot;" style="text;whiteSpace=wrap;html=1;" parent="1" vertex="1">
          <mxGeometry x="580" y="260" width="90" height="40" as="geometry" />
        </mxCell>
        <mxCell id="D7MWi51H5zmShWoSvv_p-36" value="User clicked &quot;list users&quot;" style="text;whiteSpace=wrap;html=1;" parent="1" vertex="1">
          <mxGeometry x="730" y="260" width="100" height="40" as="geometry" />
        </mxCell>
        <mxCell id="D7MWi51H5zmShWoSvv_p-37" value="User clicked &quot;shopping cart&quot;" style="text;whiteSpace=wrap;html=1;" parent="1" vertex="1">
          <mxGeometry x="360" y="470" width="160" height="40" as="geometry" />
        </mxCell>
        <mxCell id="D7MWi51H5zmShWoSvv_p-38" value="User clicked &quot;list products&quot;" style="text;whiteSpace=wrap;html=1;" parent="1" vertex="1">
          <mxGeometry x="360" y="420" width="160" height="20" as="geometry" />
        </mxCell>
        <mxCell id="D7MWi51H5zmShWoSvv_p-39" value="User clicked &quot;front page&quot;" style="text;whiteSpace=wrap;html=1;" parent="1" vertex="1">
          <mxGeometry x="180" y="30" width="140" height="30" as="geometry" />
        </mxCell>
        <mxCell id="D7MWi51H5zmShWoSvv_p-40" value="User clicked &quot;front page&quot;" style="text;whiteSpace=wrap;html=1;" parent="1" vertex="1">
          <mxGeometry x="550" y="30" width="140" height="30" as="geometry" />
        </mxCell>
        <mxCell id="D7MWi51H5zmShWoSvv_p-42" style="rounded=0;orthogonalLoop=1;jettySize=auto;html=1;exitX=1;exitY=0;exitDx=0;exitDy=0;entryX=0.002;entryY=1.068;entryDx=0;entryDy=0;entryPerimeter=0;startArrow=classic;startFill=1;" parent="1" source="D7MWi51H5zmShWoSvv_p-3" target="D7MWi51H5zmShWoSvv_p-4" edge="1">
          <mxGeometry relative="1" as="geometry" />
        </mxCell>
        <mxCell id="loDkcP1tt6ysw1GV08RF-1" value="&lt;div&gt;user clicked&lt;/div&gt;&lt;div&gt;&quot;place order&quot;&lt;br&gt;&lt;/div&gt;" style="html=1;verticalAlign=bottom;endArrow=block;labelBackgroundColor=none;fontFamily=Verdana;fontSize=12;elbow=vertical;edgeStyle=orthogonalEdgeStyle;curved=1;entryX=1;entryY=1;exitX=1.038;exitY=0.345;exitPerimeter=0;rounded=0;entryDx=0;entryDy=0;" edge="1" parent="1" target="D7MWi51H5zmShWoSvv_p-5">
          <mxGeometry x="0.2041" y="32" relative="1" as="geometry">
            <mxPoint x="759.6199999999999" y="399.9000000000001" as="sourcePoint" />
            <mxPoint x="764.6199999999999" y="437.9000000000001" as="targetPoint" />
            <Array as="points">
              <mxPoint x="800" y="400" />
              <mxPoint x="800" y="420" />
            </Array>
            <mxPoint x="10" y="-2" as="offset" />
          </mxGeometry>
        </mxCell>
        <mxCell id="loDkcP1tt6ysw1GV08RF-3" value="&lt;div&gt;user clicked&lt;/div&gt;&lt;div&gt;&quot;add to cart&quot;&lt;br&gt;&lt;/div&gt;" style="html=1;verticalAlign=bottom;endArrow=block;labelBackgroundColor=none;fontFamily=Verdana;fontSize=12;elbow=vertical;edgeStyle=orthogonalEdgeStyle;curved=1;exitX=1.038;exitY=0.345;exitPerimeter=0;rounded=0;" edge="1" parent="1">
          <mxGeometry x="0.333" y="-40" relative="1" as="geometry">
            <mxPoint x="79.99999999999989" y="400.0000000000001" as="sourcePoint" />
            <mxPoint x="80" y="420" as="targetPoint" />
            <Array as="points">
              <mxPoint x="30" y="400" />
              <mxPoint x="30" y="420" />
              <mxPoint x="80" y="420" />
            </Array>
            <mxPoint as="offset" />
          </mxGeometry>
        </mxCell>
      </root>
    </mxGraphModel>
  </diagram>
</mxfile>
